<svg width="12" height="12" viewBox="0 0 12 12" fill="none" xmlns="http://www.w3.org/2000/svg">
<path d="M0 4.76953C0 2.13867 2.13867 0 4.76953 0C7.40039 0 9.53906 2.13867 9.53906 4.76953C9.53906 5.79492 9.20508 6.74414 8.64844 7.51172L11.3262 10.1953C11.4844 10.3594 11.5664 10.5762 11.5664 10.8105C11.5664 11.2969 11.209 11.6719 10.7109 11.6719C10.4824 11.6719 10.2539 11.5957 10.0898 11.4258L7.39453 8.73047C6.64453 9.24023 5.74805 9.53906 4.76953 9.53906C2.13867 9.53906 0 7.40039 0 4.76953ZM1.21875 4.76953C1.21875 6.73242 2.80664 8.32031 4.76953 8.32031C6.73242 8.32031 8.32031 6.73242 8.32031 4.76953C8.32031 2.80664 6.73242 1.21875 4.76953 1.21875C2.80664 1.21875 1.21875 2.80664 1.21875 4.76953ZM3.30469 4.74023C3.11719 4.92188 2.76562 4.85742 2.76562 4.5293V3.1582C2.76562 2.91211 2.89453 2.77148 3.10547 2.77148H4.55859C4.88672 2.77148 4.95703 3.11719 4.76367 3.31055L4.30664 3.75586L5.77148 5.2207L6.21094 4.78711C6.4043 4.60547 6.75586 4.66992 6.75586 4.99805V6.36914C6.75586 6.61523 6.62695 6.76172 6.41016 6.76172H4.95703C4.63477 6.76172 4.55859 6.41016 4.75195 6.22266L5.20898 5.77148L3.74414 4.30664L3.30469 4.74023Z" fill="white"/>
</svg>
