<svg width="185" height="186" viewBox="0 0 185 186" fill="none" xmlns="http://www.w3.org/2000/svg">
<g filter="url(#filter0_d_272_1008)">
<path d="M92.5 184C143.31 184 184.5 142.81 184.5 92C184.5 41.1898 143.31 0 92.5 0C41.6898 0 0.5 41.1898 0.5 92C0.5 142.81 41.6898 184 92.5 184Z" fill="#F9AA8F"/>
<path d="M169.719 122.575C162.85 138.982 149.172 147.17 128.748 147.17C125.007 147.17 120.928 147.63 116.574 148.58C110.011 149.991 106.73 151.954 106.73 154.438C106.73 155.204 107.282 156.124 108.355 157.136C109.459 158.148 110.379 158.67 111.176 158.67C107.282 158.67 109.919 158.792 119.15 159.007C128.38 159.252 134.146 159.344 136.476 159.344C122.891 167.318 100.167 170.967 68.3045 170.354C57.8472 170.2 48.8619 165.6 41.3792 156.523C34.0192 147.936 30.3699 138.338 30.3699 127.727C30.3699 116.503 34.1419 106.935 41.7472 99.0229C49.3218 91.1416 58.7365 87.1856 69.9605 87.1856C72.4445 87.1856 75.7872 87.7376 79.9271 88.8109C84.0671 89.9149 86.8271 90.4363 88.2378 90.4363C94.0031 90.4363 101.21 88.0443 109.796 83.2909C118.383 78.5376 122.462 76.1456 121.971 76.1456C120.407 92.5523 114.948 103.562 105.564 109.174C98.8485 113.068 95.5058 116.902 95.5058 120.643C95.5058 122.974 96.9165 124.875 99.7071 126.255C101.884 127.359 104.307 127.911 106.975 127.911C111.023 127.911 115.01 125.427 118.935 120.428C122.83 115.43 124.547 110.891 124.087 106.843C123.627 102.151 123.934 96.5389 125.038 89.9763C125.344 88.1056 126.479 85.8056 128.442 83.0763C130.404 80.3469 132.152 78.6603 133.716 78.0469C133.716 79.4576 133.226 81.7883 132.183 85.0696C131.171 88.3509 130.65 90.7736 130.65 92.3376C130.65 95.7723 131.57 98.4403 133.471 100.311C136.292 99.2069 138.776 95.7109 140.954 89.7616C142.824 85.2229 143.928 80.8683 144.235 76.6363C137.672 76.3296 131.386 73.3549 125.375 67.7429C119.364 62.1309 116.359 56.0283 116.359 49.4656C116.359 48.3616 116.512 47.2883 116.819 46.1843C117.739 47.5949 119.15 49.7723 121.02 52.7469C123.688 56.6416 125.712 58.6043 127.123 58.6043C128.994 58.6043 129.944 56.6416 129.944 52.7469C129.944 47.7483 128.626 43.2096 125.958 39.1616C122.983 34.3163 119.15 31.8936 114.488 31.8936C112.311 31.8936 109.03 33.0589 104.644 35.4203C100.259 37.7509 96.2725 38.9469 92.6845 38.9469C91.5805 38.9469 86.7351 37.5363 78.1485 34.7149C93.2978 32.2309 100.872 29.9616 100.872 27.9376C100.872 22.6323 90.4765 19.0443 69.7152 17.1736C67.6912 17.0203 63.9498 16.7136 58.4605 16.2229C59.0738 15.4563 63.5205 14.5976 71.8005 13.6469C78.8231 12.8803 83.7605 12.4816 86.5511 12.4816C123.719 12.4816 147.302 30.5136 157.299 66.6083C159.016 65.1976 159.875 62.8056 159.875 59.4936C159.875 55.2309 158.618 49.8336 156.134 43.3323C155.183 40.8176 153.711 37.0149 151.687 31.9243C164.475 48.2389 170.884 63.6949 170.884 78.2923C170.884 85.9896 169.075 92.9509 165.487 99.2376C163.156 103.47 158.771 108.898 152.362 115.491C145.952 122.084 141.598 127.175 139.236 130.794C147.823 128.463 153.466 126.654 156.103 125.396C162.022 122.759 167.419 118.772 172.264 113.436C172.264 115.46 171.406 118.527 169.688 122.575H169.719ZM67.5992 30.5136C67.5992 33.3349 66.0352 35.1136 62.9072 35.9109L56.8045 36.8616C54.6272 37.9656 51.4072 42.2589 47.2059 49.7416C46.7459 47.4109 46.0405 44.1296 45.0899 39.8976C43.6792 40.0509 41.3485 41.3083 38.0672 43.6389C36.6565 44.7429 34.3872 46.3683 31.2592 48.5456C32.2099 42.9336 35.3072 37.2296 40.6432 31.4336C46.2552 25.0243 51.7445 21.8349 57.0498 21.8349C64.0725 21.8349 67.5992 24.7176 67.5992 30.5136V30.5136ZM108.355 52.0723C108.355 54.7403 106.914 56.9483 104.031 58.7576C101.148 60.5669 98.2965 61.4563 95.4751 61.4563C91.7338 61.4563 88.3605 59.3403 85.4165 55.1389C81.8285 49.9869 78.1485 46.6443 74.4072 45.0496C75.1738 44.2829 76.1245 43.8843 77.2285 43.8843C78.6391 43.8843 81.0005 44.9883 84.3738 47.1656C87.7165 49.3429 89.8631 50.4469 90.8138 50.4469C91.5805 50.4469 92.8685 49.3429 94.6778 47.1656C96.4871 44.9883 98.4498 43.8843 100.658 43.8843C105.81 43.8843 108.386 46.6136 108.386 52.0723" fill="#200000"/>
</g>
<defs>
<filter id="filter0_d_272_1008" x="0" y="0" width="184.5" height="186" filterUnits="userSpaceOnUse" color-interpolation-filters="sRGB">
<feFlood flood-opacity="0" result="BackgroundImageFix"/>
<feColorMatrix in="SourceAlpha" type="matrix" values="0 0 0 0 0 0 0 0 0 0 0 0 0 0 0 0 0 0 127 0" result="hardAlpha"/>
<feOffset dx="-0.5" dy="2"/>
<feColorMatrix type="matrix" values="0 0 0 0 0 0 0 0 0 0 0 0 0 0 0 0 0 0 1 0"/>
<feBlend mode="normal" in2="BackgroundImageFix" result="effect1_dropShadow_272_1008"/>
<feBlend mode="normal" in="SourceGraphic" in2="effect1_dropShadow_272_1008" result="shape"/>
</filter>
</defs>
</svg>
