<svg width="185" height="186" viewBox="0 0 185 186" fill="none" xmlns="http://www.w3.org/2000/svg">
<g filter="url(#filter0_d_272_1010)">
<path d="M92.5 184C143.31 184 184.5 142.81 184.5 92C184.5 41.1898 143.31 0 92.5 0C41.6898 0 0.5 41.1898 0.5 92C0.5 142.81 41.6898 184 92.5 184Z" fill="#FFFBD5"/>
<path d="M180.267 105.003C168.185 98.1945 160.457 94.7905 157.053 94.7905C154.569 94.7905 152.637 96.6919 151.257 100.495C149.877 104.297 147.086 106.168 142.915 106.168C141.198 106.168 137.733 105.555 132.458 104.328C129.514 108.805 128.042 111.688 128.042 112.915C128.042 114.632 129.299 116.625 131.845 118.956C134.39 121.287 136.506 122.421 138.254 122.421C139.358 122.421 140.861 122.207 142.762 121.716C144.663 121.256 145.921 121.011 146.565 121.011C148.466 121.011 149.417 124.507 149.417 131.468C149.417 138.123 147.883 148.335 144.786 162.104C140.769 146.311 136.506 138.429 132.029 138.429C131.415 138.429 130.127 138.889 128.195 139.84C126.263 140.76 124.822 141.22 123.902 141.22C119.425 141.22 115.407 137.111 111.819 128.923C104.705 129.996 101.147 133.645 101.147 139.84C101.147 142.937 102.589 145.421 105.441 147.261C108.293 149.132 109.734 150.451 109.734 151.217C109.734 155.388 103.631 161.828 91.3955 170.476C84.8941 175.107 80.4168 178.357 77.9328 180.228C80.0795 177.437 82.2568 173.819 84.4341 169.311C86.9181 164.22 88.1448 160.264 88.1448 157.473C88.1448 155.94 86.3661 153.763 82.8088 150.972C79.2515 148.181 77.4728 145.237 77.4728 142.14C77.4728 139.503 78.3928 136.252 80.2635 132.388C78.2395 130.057 75.8475 128.892 73.0568 128.892C66.8621 128.892 63.7648 130.916 63.7648 134.933C63.7648 132.143 63.7648 134.228 63.7648 141.189C63.9181 146.311 60.0541 148.856 52.1421 148.856C46.1008 148.856 35.9808 147.445 21.7208 144.685C37.8208 140.668 45.8555 136.007 45.8555 130.763C45.8555 131.376 45.5488 129.536 44.9355 125.181C44.3221 120.397 47.7261 116.043 55.1475 112.179C53.7675 105.064 50.0568 101.507 44.0155 101.507C43.0955 101.507 41.3781 103.132 38.9248 106.383C36.4408 109.633 34.1408 111.259 31.9635 111.259C28.2528 111.259 23.4381 107.241 17.5808 99.1759C14.7901 95.1585 10.5275 89.2092 4.82347 81.2972C8.3808 83.1679 11.9381 85.0079 15.4955 86.8785C20.1261 89.0559 23.8675 90.1292 26.6275 90.1292C28.8048 90.1292 30.9208 88.2279 33.0061 84.4252C35.0915 80.6225 37.8515 78.7212 41.2555 78.7212C41.7155 78.7212 44.8128 79.6412 50.5475 81.5119C53.4915 77.0345 54.9635 73.6919 54.9635 71.5145C54.9635 69.6439 53.8288 67.5279 51.5901 65.1359C49.3515 62.7439 47.2968 61.5479 45.4261 61.5479C44.6595 61.5479 43.4635 61.7932 41.8381 62.2532C40.2128 62.7132 39.0168 62.9585 38.2501 62.9585C35.4595 62.9585 34.0795 59.4625 34.0795 52.5012C34.0795 50.6305 35.8581 40.0505 39.4155 20.6999C39.2621 23.0305 40.2741 27.3545 42.4208 33.7025C45.0581 41.4305 48.1555 45.3252 51.7128 45.3252C52.3261 45.3252 53.5835 44.8652 55.4235 43.9452C57.2941 43.0252 58.7355 42.5652 59.8395 42.5652C63.3968 42.5652 66.3408 44.5892 68.6715 48.6065L72.1675 54.8625C75.4181 54.8625 78.1168 53.6972 80.2941 51.3972C82.4715 49.0665 83.5448 46.2759 83.5448 43.0252C83.5448 39.6212 82.1035 37.0145 79.2515 35.2359C76.3688 33.4572 74.9581 32.1079 74.9581 31.1879C74.9581 27.9372 80.0795 22.4479 90.2915 14.7199C98.4795 8.5252 103.846 4.90654 106.299 3.80254C99.6448 12.7879 96.3021 19.3505 96.3021 23.5212C96.3021 25.6985 97.6208 27.9985 100.258 30.4825C103.509 33.4265 105.379 35.5119 105.839 36.7385C107.373 40.2959 107.219 45.1719 105.379 51.3665C109.55 54.3105 112.739 55.7825 114.886 55.7825C119.363 55.7825 121.602 53.4519 121.602 48.8212C121.602 48.3612 121.418 46.8892 121.019 44.4052C120.621 41.9212 120.529 40.5412 120.682 40.2345C121.295 38.0572 125.558 36.9839 133.439 36.9839C138.407 36.9839 148.681 38.3639 164.321 41.1545C160.917 42.0745 155.795 43.4852 148.987 45.3252C142.793 47.1959 139.695 49.2812 139.695 51.5812C139.695 52.6545 140.094 54.5252 140.861 57.1625C141.627 59.7999 142.026 61.7319 142.026 62.9585C142.026 65.1359 140.646 67.1292 137.855 68.9999L129.974 74.5812C131.845 77.9852 133.071 80.0092 133.685 80.6225C135.218 82.4932 137.334 83.4132 139.941 83.4132C141.811 83.4132 143.498 81.7879 145.062 78.5372C146.595 75.2865 149.079 73.6612 152.483 73.6612C156.654 73.6612 161.377 77.5252 166.651 85.2839C169.595 89.6385 174.165 96.2012 180.329 105.033L180.267 105.003ZM128.809 91.5705C128.809 81.6652 125.159 73.0785 117.891 65.8105C110.623 58.5425 102.037 54.8932 92.1315 54.8932C82.0728 54.8932 73.3941 58.4812 66.1261 65.6879C58.8581 72.8945 55.1475 81.5119 54.9941 91.5705C54.8408 101.476 58.5208 110.032 66.0341 117.208C73.5475 124.415 82.2568 128.003 92.1621 128.003C102.681 128.003 111.482 124.568 118.505 117.668C125.558 110.799 128.993 102.089 128.839 91.5705H128.809ZM125.343 91.5705C125.343 101.016 122.185 108.836 115.837 115C109.489 121.195 101.607 124.292 92.1621 124.292C83.0235 124.292 75.2035 121.133 68.7328 114.785C62.2315 108.437 58.9808 100.709 58.9808 91.5705C58.9808 82.5852 62.2621 74.8879 68.8555 68.4785C75.4488 62.0692 83.2075 58.8492 92.1928 58.8492C101.178 58.8492 108.937 62.0999 115.53 68.6012C122.093 75.1025 125.405 82.7692 125.405 91.5705" fill="#211D15"/>
</g>
<defs>
<filter id="filter0_d_272_1010" x="0" y="0" width="184.5" height="186" filterUnits="userSpaceOnUse" color-interpolation-filters="sRGB">
<feFlood flood-opacity="0" result="BackgroundImageFix"/>
<feColorMatrix in="SourceAlpha" type="matrix" values="0 0 0 0 0 0 0 0 0 0 0 0 0 0 0 0 0 0 127 0" result="hardAlpha"/>
<feOffset dx="-0.5" dy="2"/>
<feColorMatrix type="matrix" values="0 0 0 0 0 0 0 0 0 0 0 0 0 0 0 0 0 0 1 0"/>
<feBlend mode="normal" in2="BackgroundImageFix" result="effect1_dropShadow_272_1010"/>
<feBlend mode="normal" in="SourceGraphic" in2="effect1_dropShadow_272_1010" result="shape"/>
</filter>
</defs>
</svg>
