<svg width="185" height="186" viewBox="0 0 185 186" fill="none" xmlns="http://www.w3.org/2000/svg">
<g filter="url(#filter0_d_272_1009)">
<path d="M92.5 184C143.31 184 184.5 142.81 184.5 92C184.5 41.1898 143.31 0 92.5 0C41.6898 0 0.5 41.1898 0.5 92C0.5 142.81 41.6898 184 92.5 184Z" fill="#AAE0FA"/>
<path d="M124.675 154.045C115.867 163.009 105.018 167.49 92.1287 167.49C77.6632 167.49 66.1878 162.54 57.6992 152.635C49.6799 143.201 45.6718 131.177 45.6718 116.559C45.6718 100.839 52.511 82.9112 66.1877 62.7877C77.3443 46.2848 90.4727 31.8205 105.567 19.4005C103.364 29.4635 102.268 36.6137 102.268 40.8586C102.268 50.6088 105.329 60.1179 111.46 69.3939C119.008 80.3971 124.742 88.579 128.677 93.9175C134.807 103.197 137.873 112.235 137.873 121.033C137.873 134.084 133.473 145.088 124.674 154.046L124.675 154.045ZM124.437 103.7C122.08 98.4347 119.327 94.9381 116.182 93.206C116.653 94.1518 116.891 95.4876 116.891 97.2172C116.891 100.52 115.949 105.233 114.059 111.364L110.997 120.797C110.997 126.299 113.743 129.052 119.248 129.052C125.062 129.052 127.973 125.197 127.973 117.495C127.973 113.568 126.796 108.972 124.437 103.698" fill="#061922"/>
</g>
<defs>
<filter id="filter0_d_272_1009" x="0" y="0" width="184.5" height="186" filterUnits="userSpaceOnUse" color-interpolation-filters="sRGB">
<feFlood flood-opacity="0" result="BackgroundImageFix"/>
<feColorMatrix in="SourceAlpha" type="matrix" values="0 0 0 0 0 0 0 0 0 0 0 0 0 0 0 0 0 0 127 0" result="hardAlpha"/>
<feOffset dx="-0.5" dy="2"/>
<feColorMatrix type="matrix" values="0 0 0 0 0 0 0 0 0 0 0 0 0 0 0 0 0 0 1 0"/>
<feBlend mode="normal" in2="BackgroundImageFix" result="effect1_dropShadow_272_1009"/>
<feBlend mode="normal" in="SourceGraphic" in2="effect1_dropShadow_272_1009" result="shape"/>
</filter>
</defs>
</svg>
