<svg width="185" height="186" viewBox="0 0 185 186" fill="none" xmlns="http://www.w3.org/2000/svg">
<g filter="url(#filter0_d_272_1007)">
<path d="M92.5 184C143.31 184 184.5 142.81 184.5 92C184.5 41.1898 143.31 0 92.5 0C41.6898 0 0.5 41.1898 0.5 92C0.5 142.81 41.6898 184 92.5 184Z" fill="#9BD3AE"/>
<path d="M173.03 103.469C173.03 106.536 171.834 109.296 169.472 111.749C167.111 114.203 164.382 115.429 161.315 115.429C156.408 115.429 152.82 113.129 150.52 108.529L139.726 108.069C137.426 108.069 132.887 109.081 126.171 111.075C118.964 113.068 114.824 114.663 113.751 115.889C112.064 117.729 110.684 122.023 109.611 128.769C108.691 134.289 108.231 138.337 108.231 140.944C108.231 145.084 108.875 148.12 110.194 150.021C111.512 151.923 114.18 153.548 118.228 154.836C122.276 156.124 124.791 156.86 125.711 157.013C126.324 157.013 127.306 156.952 128.716 156.799H131.476C133.47 156.799 135.524 157.105 137.671 157.719C140.738 158.639 142.056 159.865 141.596 161.399C139.45 161.092 135.708 161.552 130.342 162.779L136.782 165.999C136.782 167.839 134.175 168.759 128.962 168.759C127.582 168.759 125.711 168.452 123.319 167.839C120.958 167.225 119.363 166.919 118.596 166.919H115.622C115.468 168.452 115.008 170.752 114.242 173.819C111.635 173.665 108.568 172.132 105.042 169.219C101.515 166.305 99.3069 164.864 98.3869 164.864C97.4669 164.864 96.1483 166.336 94.4923 169.219C92.8056 172.132 91.9776 174.125 91.9776 175.199C89.9843 174.125 88.2976 172.132 86.9176 169.219C86.3043 167.225 85.6296 165.232 84.8629 163.239C83.3296 163.392 80.5083 166.612 76.3683 172.899H75.2029C74.8963 172.439 73.7309 169.219 71.7683 163.239C67.0149 161.705 62.5683 160.939 58.4283 160.939C56.4349 160.939 53.3683 161.399 49.2283 162.319L42.7883 161.859C43.7083 160.939 46.3763 159.191 50.8229 156.584C56.0363 153.517 60.0229 151.984 62.7829 151.984C63.2429 151.984 63.8563 152.076 64.6229 152.229C65.3896 152.383 66.0029 152.475 66.4629 152.475C67.5363 152.475 69.2536 151.892 71.6456 150.757C74.0069 149.623 75.3869 148.58 75.7856 147.66C76.1843 146.74 76.3683 144.348 76.3683 140.545C76.3683 131.805 74.0683 125.304 69.4683 121.011C65.4816 117.177 58.8883 114.417 49.6883 112.731C47.2349 121.471 40.3349 125.825 29.0189 125.825C25.3389 125.825 21.6589 123.617 17.9789 119.171C14.2069 114.632 12.3669 110.584 12.3669 106.904C12.3669 101.231 14.7283 96.5692 19.4816 92.8892C15.6483 88.9025 13.7469 84.8545 13.7469 80.7145C13.7469 76.8812 14.9429 73.5079 17.3043 70.5945C19.6656 67.6812 22.7936 65.9945 26.6269 65.5345C26.3203 60.6279 27.9149 57.2545 31.4416 55.4145C29.7549 53.7279 28.9269 50.7532 28.9269 46.4599C28.9269 41.3999 30.6136 37.1985 33.9869 33.8252C37.3603 30.4519 41.5616 28.7652 46.6216 28.7652C52.1416 28.7652 56.6496 30.6972 60.1763 34.5305C64.6229 19.3505 74.1909 11.7759 88.9109 11.7759C96.5776 11.7759 103.324 14.8425 109.151 20.9759C111.298 23.2759 112.371 24.5025 112.371 24.6559C110.531 24.6559 111.451 24.3185 115.131 23.6132C118.811 22.9385 121.479 22.5705 123.166 22.5705C129.146 22.5705 134.42 24.7785 139.02 29.2252C143.007 33.2119 145.767 38.2719 147.3 44.4052C148.374 44.5585 150.06 45.0185 152.36 45.7852C155.734 47.4719 157.42 50.3852 157.42 54.5252C157.42 55.2919 156.807 56.7639 155.58 58.8799C165.394 64.3999 170.3 72.0665 170.3 81.8799C170.3 84.6399 169.227 88.4732 167.08 93.3799C171.067 95.6799 173.06 99.0532 173.06 103.5L173.03 103.469ZM78.3616 113.62V110.645C78.3616 107.119 76.6443 103.899 73.1789 100.985C69.7443 98.0719 66.2483 96.6305 62.7216 96.6305C58.4283 96.6305 54.4416 97.6119 50.7616 99.6052C58.8883 99.1452 68.0883 103.837 78.3309 113.62H78.3616ZM74.1909 85.1305C71.8909 82.5239 69.8976 79.8559 68.2109 77.0959C61.7709 78.7825 58.5509 80.6839 58.5509 82.8305C60.3909 82.6772 63.0589 83.0145 66.5856 83.8732C70.1123 84.7319 72.6269 85.1305 74.1909 85.1305ZM88.2056 78.0159V67.8959C84.5256 67.2825 82.2869 66.9759 81.5509 66.9759V70.4105L88.2056 77.9852V78.0159ZM118.075 71.5452C116.235 70.7785 112.8 69.2452 107.74 66.9452V86.7252C114.947 82.5852 118.382 77.5252 118.075 71.5452ZM130.71 98.6852L125.65 92.4905C122.583 94.6372 119.486 96.8145 116.327 99.0532C113.168 101.261 110.47 103.776 108.17 106.536C115.07 102.856 122.583 100.249 130.679 98.7159" fill="#00160B"/>
</g>
<defs>
<filter id="filter0_d_272_1007" x="0" y="0" width="184.5" height="186" filterUnits="userSpaceOnUse" color-interpolation-filters="sRGB">
<feFlood flood-opacity="0" result="BackgroundImageFix"/>
<feColorMatrix in="SourceAlpha" type="matrix" values="0 0 0 0 0 0 0 0 0 0 0 0 0 0 0 0 0 0 127 0" result="hardAlpha"/>
<feOffset dx="-0.5" dy="2"/>
<feColorMatrix type="matrix" values="0 0 0 0 0 0 0 0 0 0 0 0 0 0 0 0 0 0 1 0"/>
<feBlend mode="normal" in2="BackgroundImageFix" result="effect1_dropShadow_272_1007"/>
<feBlend mode="normal" in="SourceGraphic" in2="effect1_dropShadow_272_1007" result="shape"/>
</filter>
</defs>
</svg>
