<svg width="185" height="186" viewBox="0 0 185 186" fill="none" xmlns="http://www.w3.org/2000/svg">
<g filter="url(#filter0_d_272_1006)">
<path d="M92.5 184C143.31 184 184.5 142.81 184.5 92C184.5 41.1898 143.31 0 92.5 0C41.6898 0 0.5 41.1898 0.5 92C0.5 142.81 41.6898 184 92.5 184Z" fill="#CBC2BF"/>
<path d="M167.388 89.4547C167.388 99.6054 163.708 106.536 156.317 110.216C154.171 111.289 147.393 112.761 136.016 114.601C128.625 115.828 124.945 118.68 124.945 123.127V141.803C124.945 142.569 125.191 144.961 125.651 148.948L126.356 156.339C126.356 158.639 125.804 162.411 124.731 167.655C121.817 168.268 118.413 168.973 114.58 169.74C113.353 165.109 112.74 161.981 112.74 160.264C112.74 159.497 112.924 158.332 113.323 156.799C113.691 155.265 113.905 154.1 113.905 153.333C113.905 152.26 112.955 149.255 111.023 144.348H107.435C106.975 145.115 106.791 146.127 106.944 147.353C107.557 149.96 107.803 152.199 107.649 154.039C105.043 155.879 101.424 158.363 96.7933 161.429C95.72 161.123 95.3213 160.969 95.628 160.969V144.593C95.3213 143.827 94.5547 143.52 93.328 143.673H90.568L87.808 165.355C85.6613 165.508 83.024 165.508 79.9573 165.355C78.884 160.295 76.952 152.751 74.192 142.753H72.352C70.6653 148.151 69.7453 151.064 69.592 151.524C69.592 152.137 69.776 153.333 70.1747 155.112C70.5427 156.891 70.7573 158.087 70.7573 158.7C70.7573 159.16 70.604 160.325 70.2973 162.165L69.592 167.716C69.2853 168.023 68.8867 168.176 68.4267 168.176C63.8267 168.176 60.7293 167.011 59.196 164.711C57.6627 162.411 57.0493 159.16 57.356 155.02L59.196 127.328C59.196 126.868 59.3493 126.255 59.656 125.488C59.9627 124.721 60.116 124.169 60.116 123.863C60.116 122.636 58.7973 120.183 56.1907 116.472C55.7307 116.319 53.3387 115.767 49.0453 114.847C46.4387 114.233 41.2867 113.16 33.5893 111.627C22.9787 109.633 17.6733 101.108 17.6733 86.02C17.6733 63.5721 26.904 44.8654 45.3653 29.9614C46.132 34.1014 47.4507 39.6521 49.2907 46.5827C50.6707 46.8894 53.676 47.5947 58.276 48.6681C59.196 48.9747 63.888 50.6614 72.352 53.7587C68.028 51.1521 62.416 46.9201 55.516 41.0628C52.9093 37.9961 51.5907 32.8441 51.5907 25.6068C51.5907 23.9201 54.504 21.9268 60.3613 19.5961C65.5747 17.4495 69.5307 16.2228 72.1373 15.9161C80.448 14.8428 86.8267 14.2908 91.304 14.2908C110.532 14.2908 126.08 19.2281 137.917 29.0721C134.084 33.5494 127.46 38.3028 118.076 43.3628C121.787 43.5161 127.153 42.0748 134.237 38.9774C141.321 35.9108 144.327 34.3774 143.223 34.3774C144.449 34.3774 146.933 36.8308 150.613 41.7681C153.373 45.4481 155.612 48.7601 157.299 51.7041C162.205 60.4747 165.517 69.9507 167.235 80.1014C167.235 83.6587 167.296 86.1734 167.48 87.7067V89.5467L167.388 89.4547ZM79.0067 93.5947C79.0067 86.9707 76.124 80.7147 70.3587 74.796C64.5933 68.8774 58.3987 65.9027 51.7747 65.9027C45.9173 65.9027 40.7653 68.3867 36.3187 73.3241C31.8413 78.292 29.6333 83.7814 29.6333 89.8227C29.6333 95.0974 32.1787 98.5014 37.2387 100.035C40.4587 100.955 44.9973 101.507 50.8547 101.66H63.5507C73.8547 101.813 79.0067 99.1147 79.0067 93.5947ZM104.153 122.207V115.061C103.08 113.068 102.007 110.983 100.933 108.836C100.013 105.769 98.3267 101.445 95.8427 95.9254L93.2973 122.912C93.2973 125.059 92.8373 126.132 91.9173 126.132C91.304 126.132 90.844 125.979 90.5373 125.672C89.464 109.357 88.912 102.304 88.912 104.451V96.3854C88.6053 95.9254 88.2373 95.68 87.7773 95.68C82.5333 101.077 79.9267 109.756 79.9267 121.747C79.9267 128.371 80.54 132.449 81.7667 133.983C82.9933 133.676 84.3733 133.124 85.9067 132.357C86.52 132.051 88.2987 131.897 91.212 131.897C94.1253 131.897 97.6827 132.817 101.823 134.657C103.356 134.657 104.123 130.517 104.123 122.207H104.153ZM156.287 90.068C156.287 83.8734 153.987 78.3534 149.356 73.4774C144.725 68.6014 139.42 66.1787 133.44 66.1787C126.969 66.1787 120.928 69.1227 115.316 75.0721C109.704 80.9907 106.883 87.1854 106.883 93.656C106.883 99.0534 109.489 101.721 114.733 101.721H141.26C151.257 101.568 156.256 97.704 156.256 90.0987" fill="#130C0E"/>
</g>
<defs>
<filter id="filter0_d_272_1006" x="0" y="0" width="184.5" height="186" filterUnits="userSpaceOnUse" color-interpolation-filters="sRGB">
<feFlood flood-opacity="0" result="BackgroundImageFix"/>
<feColorMatrix in="SourceAlpha" type="matrix" values="0 0 0 0 0 0 0 0 0 0 0 0 0 0 0 0 0 0 127 0" result="hardAlpha"/>
<feOffset dx="-0.5" dy="2"/>
<feColorMatrix type="matrix" values="0 0 0 0 0 0 0 0 0 0 0 0 0 0 0 0 0 0 1 0"/>
<feBlend mode="normal" in2="BackgroundImageFix" result="effect1_dropShadow_272_1006"/>
<feBlend mode="normal" in="SourceGraphic" in2="effect1_dropShadow_272_1006" result="shape"/>
</filter>
</defs>
</svg>
