<svg width="185" height="186" viewBox="0 0 185 186" fill="none" xmlns="http://www.w3.org/2000/svg">
<g filter="url(#filter0_d_272_1005)">
<path d="M92.5 184C143.31 184 184.5 142.81 184.5 92C184.5 41.1898 143.31 0 92.5 0C41.6898 0 0.5 41.1898 0.5 92C0.5 142.81 41.6898 184 92.5 184Z" fill="#CBC2BF"/>
<path d="M157.513 108.407H91.2728L115.53 91.1416C106.514 83.9962 96.0874 80.4082 84.2808 80.4082C78.3621 80.4082 74.3141 81.5429 72.1675 83.7815C69.9901 86.0509 68.8861 90.1295 68.8861 96.0176C68.8861 112.332 77.2888 129.751 94.0941 148.274L74.9888 167.624C52.7555 140.576 41.6235 116.38 41.6235 95.0976C41.6235 82.3402 45.4568 72.1895 53.1542 64.6455C60.8515 57.1015 71.0941 53.3295 83.8208 53.3295C99.3688 53.3295 116.327 59.2482 134.697 71.0549L148.926 46.7975L157.574 108.376" fill="#130C0E"/>
</g>
<defs>
<filter id="filter0_d_272_1005" x="0" y="0" width="184.5" height="186" filterUnits="userSpaceOnUse" color-interpolation-filters="sRGB">
<feFlood flood-opacity="0" result="BackgroundImageFix"/>
<feColorMatrix in="SourceAlpha" type="matrix" values="0 0 0 0 0 0 0 0 0 0 0 0 0 0 0 0 0 0 127 0" result="hardAlpha"/>
<feOffset dx="-0.5" dy="2"/>
<feColorMatrix type="matrix" values="0 0 0 0 0 0 0 0 0 0 0 0 0 0 0 0 0 0 1 0"/>
<feBlend mode="normal" in2="BackgroundImageFix" result="effect1_dropShadow_272_1005"/>
<feBlend mode="normal" in="SourceGraphic" in2="effect1_dropShadow_272_1005" result="shape"/>
</filter>
</defs>
</svg>
